<svg width="397" height="64" viewBox="0 0 397 64" fill="none" xmlns="http://www.w3.org/2000/svg">
<path d="M2 2.0729H1V3.0729V60.8446V61.8446H2H16.2412H17.2412V60.8446V38.3232H38.1445C44.6374 38.3232 50.3288 36.9384 54.4233 33.9418C58.5627 30.9122 60.9644 26.31 60.9644 20.1568C60.9644 14.6396 58.8287 10.0862 55.1507 6.92585C51.4877 3.77841 46.3684 2.0729 40.4763 2.0729H2ZM153.605 34.1871V32.663L152.207 33.2697L139.465 38.7993L138.863 39.0605V39.7166V42.6878C138.863 54.7649 148.868 63 162.1 63C170.046 63 176.33 60.6243 180.623 56.1407C184.91 51.6638 187.085 45.2175 187.085 37.3232V3.0729V2.0729H186.085H158.352H157.352V3.0729V15.6176V16.6176H158.352H170.844V37.3232C170.844 41.4561 170.12 44.2065 168.743 45.9194C167.407 47.5806 165.296 48.4553 162.016 48.4553C159.279 48.4553 157.232 47.4887 155.844 45.7475C154.43 43.9734 153.605 41.274 153.605 37.6534V34.1871ZM253.15 61.8446H254.15V60.8446V48.8776V47.8776H253.15H216.256V35.8473H249.319H250.319V34.8473V23.1279V22.1279H249.319H216.256V16.1224H252.817H253.817V15.1224V3.0729V2.0729H252.817H201.015H200.015V3.0729V60.8446V61.8446H201.015H253.15ZM328.836 16.3075L329.734 15.7626L329.146 14.8925C323.333 6.29415 312.398 1 298.086 1C287.39 1 278.354 3.76486 271.973 9.0716C265.569 14.3976 261.941 22.2017 261.941 32.0413C261.941 41.8409 265.57 49.6243 271.974 54.9394C278.354 60.2351 287.39 63 298.086 63C312.569 63 323.591 57.5373 329.319 48.8504L329.892 47.9818L329.001 47.4439L316.842 40.0987L315.976 39.5752L315.463 40.4481C312.452 45.5734 306.358 48.5378 298.086 48.5378C292.204 48.5378 287.308 47.0495 283.903 44.2843C280.525 41.541 278.516 37.4632 278.516 32.0413C278.516 26.5757 280.527 22.4775 283.904 19.725C287.309 16.9505 292.204 15.4622 298.086 15.4622C306.274 15.4622 312.206 18.3442 315.216 23.3925L315.732 24.258L316.594 23.7353L328.836 16.3075ZM395 16.6176H396V15.6176V3.0729V2.0729H395H330.873H329.873V3.0729V15.6176V16.6176H330.873H354.774V60.8446V61.8446H355.774H370.015H371.015V60.8446V16.6176H395ZM40.0599 15.9574C41.5758 15.9574 42.6552 16.394 43.3513 17.0683C44.0437 17.7391 44.4733 18.7575 44.4733 20.1568C44.4733 21.6041 44.0396 22.6431 43.3472 23.3215C42.6523 24.0024 41.5756 24.4388 40.0599 24.4388H17.2412V15.9574H40.0599ZM63.6581 32.0413C63.6581 41.8409 67.287 49.6243 73.6906 54.9394C80.071 60.2351 89.1066 63 99.8032 63C110.5 63 119.535 60.2351 125.916 54.9394C132.319 49.6243 135.948 41.8409 135.948 32.0413C135.948 22.2017 132.32 14.3976 125.917 9.0716C119.536 3.76486 110.5 1 99.8032 1C89.1066 1 80.0705 3.76486 73.6898 9.0716C67.286 14.3976 63.6581 22.2017 63.6581 32.0413ZM99.8032 15.4622C105.685 15.4622 110.603 16.9506 114.029 19.7267C117.428 22.4808 119.457 26.5791 119.457 32.0413C119.457 37.4599 117.43 41.5377 114.03 44.2825C110.604 47.0494 105.685 48.5378 99.8032 48.5378C93.9211 48.5378 89.0248 47.0495 85.6198 44.2843C82.2417 41.541 80.2325 37.4632 80.2325 32.0413C80.2325 26.5757 82.2434 22.4775 85.6211 19.725C89.0257 16.9505 93.921 15.4622 99.8032 15.4622Z" stroke="#24A9F4" stroke-width="2"/>
</svg>
