<svg width="706" height="214" viewBox="0 0 706 214" fill="none" xmlns="http://www.w3.org/2000/svg">
<path d="M52.7713 1.32182H32.8576L0 72.4965H18.4202L27.9787 51.4491H57.451L67.1091 72.4965H85.7284L52.7713 1.32182ZM42.7149 17.7937L51.676 37.3159H33.8533C36.7407 30.8085 39.8274 24.3011 42.7149 17.7937Z" fill="#101010"/>
<path d="M144.754 72.4965C159.689 72.4965 169.745 63.6505 169.745 50.4324C169.745 42.3998 165.464 35.689 159.191 31.9269C162.178 28.9783 164.269 24.6061 164.269 19.5222C164.269 8.13425 155.208 1.32182 141.667 1.32182H96.961V72.4965H144.754ZM143.858 41.078C148.936 41.078 152.321 44.3317 152.321 49.7206C152.321 55.0079 149.035 58.2616 143.957 58.2616H113.987V41.078H143.858ZM141.07 15.6584C144.754 15.6584 147.343 17.692 147.343 21.4541C147.343 25.1145 144.754 27.0464 141.269 27.0464H113.987V15.6584H141.07Z" fill="#101010"/>
<path d="M178.29 37.0108C178.29 60.4985 195.117 73.92 220.308 73.92C245.498 73.92 262.325 60.4985 262.325 37.0108C262.325 13.4215 245.498 0 220.308 0C195.117 0 178.29 13.4215 178.29 37.0108ZM220.308 15.3534C234.745 15.3534 245.001 22.8776 245.001 37.0108C245.001 51.0424 234.745 58.5666 220.308 58.5666C205.87 58.5666 195.714 51.0424 195.714 37.0108C195.714 22.8776 205.87 15.3534 220.308 15.3534Z" fill="#101010"/>
<path d="M329.237 39.7561C329.237 51.7542 320.973 58.5666 310.02 58.5666C298.371 58.5666 290.903 51.6525 290.903 39.7561V1.32182H273.877V40.1629C273.877 61.922 288.016 73.92 310.02 73.92C332.124 73.92 346.263 61.922 346.263 40.1629V1.32182H329.237V39.7561Z" fill="#101010"/>
<path d="M431.366 16.7769V1.32182H354.698V16.7769H384.469V72.4965H401.496V16.7769H431.366Z" fill="#101010"/>
<path d="M538.324 16.7769V1.32182H461.657V16.7769H491.428V72.4965H508.454V16.7769H538.324Z" fill="#101010"/>
<path d="M604.365 72.4965H621.392V1.32182H604.365V23.691H566.032V1.32182H549.005V72.4965H566.032V39.1461H604.365V72.4965Z" fill="#101010"/>
<path d="M704 72.4965V57.7532H658.696V40.4679H699.42V26.0296H658.696V16.1668H703.602V1.32182H641.67V72.4965H704Z" fill="#101010"/>
<path d="M12.3199 106.488H11.3199V107.488V209.166V210.166H12.3199H37.3845H38.3845V209.166V168.769H75.9342C87.2692 168.769 97.1064 166.349 104.136 161.204C111.211 156.026 115.337 148.163 115.337 137.556C115.337 128.056 111.667 120.256 105.37 114.846C99.0881 109.448 90.266 106.488 80.0383 106.488H12.3199ZM278.385 162.249V160.725L276.987 161.332L254.561 171.064L253.959 171.325V171.981V177.21C253.959 197.943 271.116 212.2 294.095 212.2C307.928 212.2 318.769 208.068 326.148 200.362C333.521 192.663 337.309 181.528 337.309 167.769V107.488V106.488H336.309H287.499H286.499V107.488V129.567V130.567H287.499H310.245V167.769C310.245 175.101 308.967 180.156 306.379 183.374C303.833 186.541 299.855 188.121 293.949 188.121C288.932 188.121 285.098 186.339 282.491 183.069C279.859 179.766 278.385 174.825 278.385 168.35V162.249ZM454.343 210.166H455.343V209.166V188.105V187.105H454.343H388.651V164.411H447.601H448.601V163.411V142.785V141.785H447.601H388.651V129.695H453.757H454.757V128.695V107.488V106.488H453.757H362.586H361.586V107.488V209.166V210.166H362.586H454.343ZM587.158 130.131L588.056 129.587L587.468 128.716C577.414 113.846 558.441 104.6 533.432 104.6C514.728 104.6 499.015 109.435 487.958 118.63C476.879 127.845 470.576 141.357 470.576 158.473C470.576 175.517 476.88 188.992 487.959 198.188C499.015 207.365 514.728 212.2 533.432 212.2C558.738 212.2 577.861 202.66 587.767 187.638L588.34 186.77L587.449 186.232L566.049 173.304L565.183 172.781L564.67 173.654C559.191 182.981 548.16 188.267 533.432 188.267C522.961 188.267 514.156 185.618 507.99 180.61C501.851 175.625 498.227 168.223 498.227 158.473C498.227 148.648 501.852 141.21 507.991 136.207C514.157 131.182 522.961 128.533 533.432 128.533C548.013 128.533 558.755 133.673 564.233 142.862L564.75 143.727L565.611 143.204L587.158 130.131ZM704 130.567H705V129.567V107.488V106.488H704H591.136H590.136V107.488V129.567V130.567H591.136H633.962V209.166V210.166H634.962H660.027H661.027V209.166V130.567H704ZM79.3055 129.405C82.1188 129.405 84.2268 130.218 85.627 131.574C87.0236 132.927 87.8329 134.934 87.8329 137.556C87.8329 140.258 87.0195 142.3 85.6229 143.669C84.2239 145.04 82.1187 145.852 79.3055 145.852H38.3845V129.405H79.3055ZM121.598 158.473C121.598 175.517 127.901 188.992 138.981 198.188C150.037 207.365 165.75 212.2 184.454 212.2C203.157 212.2 218.87 207.365 229.926 198.188C241.006 188.992 247.309 175.517 247.309 158.473C247.309 141.357 241.007 127.845 229.927 118.63C218.871 109.435 203.157 104.6 184.454 104.6C165.75 104.6 150.037 109.435 138.98 118.63C127.9 127.845 121.598 141.357 121.598 158.473ZM184.454 128.533C194.925 128.533 203.766 131.182 209.97 136.209C216.145 141.213 219.805 148.651 219.805 158.473C219.805 168.219 216.147 175.621 209.971 180.609C203.767 185.618 194.925 188.267 184.454 188.267C173.983 188.267 165.178 185.618 159.012 180.61C152.872 175.625 149.249 168.223 149.249 158.473C149.249 148.648 152.874 141.21 159.013 136.207C165.179 131.182 173.983 128.533 184.454 128.533Z" stroke="#24A9F4" stroke-width="2"/>
</svg>
