<svg width="40" height="40" viewBox="0 0 40 40" fill="none" xmlns="http://www.w3.org/2000/svg">
<g filter="url(#filter0_d_13_1903)">
<rect x="4" width="32" height="32" rx="16" fill="#575757"/>
<rect x="4.5" y="0.5" width="31" height="31" rx="15.5" stroke="#707070"/>
</g>
<path d="M28 16.7207C27.8599 18.237 27.2908 19.682 26.3594 20.8867C25.428 22.0914 24.1728 23.0059 22.7406 23.5232C21.3084 24.0405 19.7585 24.1392 18.2723 23.8078C16.786 23.4764 15.4249 22.7286 14.3481 21.6519C13.2714 20.5751 12.5236 19.214 12.1922 17.7277C11.8608 16.2415 11.9595 14.6916 12.4768 13.2594C12.9941 11.8272 13.9086 10.572 15.1133 9.64059C16.318 8.70918 17.763 8.14012 19.2793 8C18.3915 9.20101 17.9644 10.6808 18.0754 12.1701C18.1865 13.6595 18.8284 15.0595 19.8845 16.1155C20.9405 17.1716 22.3405 17.8135 23.8299 17.9246C25.3192 18.0356 26.799 17.6085 28 16.7207Z" fill="white"/>
<defs>
<filter id="filter0_d_13_1903" x="0" y="0" width="40" height="40" filterUnits="userSpaceOnUse" color-interpolation-filters="sRGB">
<feFlood flood-opacity="0" result="BackgroundImageFix"/>
<feColorMatrix in="SourceAlpha" type="matrix" values="0 0 0 0 0 0 0 0 0 0 0 0 0 0 0 0 0 0 127 0" result="hardAlpha"/>
<feOffset dy="4"/>
<feGaussianBlur stdDeviation="2"/>
<feComposite in2="hardAlpha" operator="out"/>
<feColorMatrix type="matrix" values="0 0 0 0 0 0 0 0 0 0 0 0 0 0 0 0 0 0 0.25 0"/>
<feBlend mode="normal" in2="BackgroundImageFix" result="effect1_dropShadow_13_1903"/>
<feBlend mode="normal" in="SourceGraphic" in2="effect1_dropShadow_13_1903" result="shape"/>
</filter>
</defs>
</svg>
