<svg width="40" height="40" viewBox="0 0 40 40" fill="none" xmlns="http://www.w3.org/2000/svg">
<g filter="url(#filter0_d_13_1893)">
<rect x="4" width="32" height="32" rx="16" fill="white"/>
<rect x="4.5" y="0.5" width="31" height="31" rx="15.5" stroke="#DDDDDD"/>
</g>
<path fill-rule="evenodd" clip-rule="evenodd" d="M20 12.7179C18.1874 12.7179 16.718 14.1873 16.718 16C16.718 17.8126 18.1874 19.282 20 19.282C21.8127 19.282 23.2821 17.8126 23.2821 16C23.2821 14.1873 21.8127 12.7179 20 12.7179ZM15.0769 16C15.0769 13.281 17.2811 11.0769 20 11.0769C22.719 11.0769 24.9231 13.281 24.9231 16C24.9231 18.7189 22.719 20.923 20 20.923C17.2811 20.923 15.0769 18.7189 15.0769 16Z" fill="#101010"/>
<path fill-rule="evenodd" clip-rule="evenodd" d="M20 6.15381C20.4532 6.15381 20.8205 6.52116 20.8205 6.97432V8.61535C20.8205 9.0685 20.4532 9.43586 20 9.43586C19.5469 9.43586 19.1795 9.0685 19.1795 8.61535V6.97432C19.1795 6.52116 19.5469 6.15381 20 6.15381Z" fill="#101010"/>
<path fill-rule="evenodd" clip-rule="evenodd" d="M20 22.5641C20.4532 22.5641 20.8205 22.9314 20.8205 23.3846V25.0256C20.8205 25.4788 20.4532 25.8461 20 25.8461C19.5469 25.8461 19.1795 25.4788 19.1795 25.0256V23.3846C19.1795 22.9314 19.5469 22.5641 20 22.5641Z" fill="#101010"/>
<path fill-rule="evenodd" clip-rule="evenodd" d="M13.0362 9.03516C13.3566 8.71473 13.8762 8.71473 14.1966 9.03516L15.3617 10.2003C15.6822 10.5207 15.6822 11.0402 15.3617 11.3607C15.0413 11.6811 14.5218 11.6811 14.2013 11.3607L13.0362 10.1955C12.7158 9.87511 12.7158 9.35559 13.0362 9.03516Z" fill="#101010"/>
<path fill-rule="evenodd" clip-rule="evenodd" d="M24.6384 20.6377C24.9588 20.3173 25.4783 20.3173 25.7988 20.6377L26.9639 21.8028C27.2843 22.1233 27.2843 22.6428 26.9639 22.9632C26.6435 23.2837 26.1239 23.2837 25.8035 22.9632L24.6384 21.7981C24.318 21.4777 24.318 20.9582 24.6384 20.6377Z" fill="#101010"/>
<path fill-rule="evenodd" clip-rule="evenodd" d="M10.1539 16C10.1539 15.5468 10.5212 15.1795 10.9744 15.1795H12.6154C13.0686 15.1795 13.4359 15.5468 13.4359 16C13.4359 16.4531 13.0686 16.8205 12.6154 16.8205H10.9744C10.5212 16.8205 10.1539 16.4531 10.1539 16Z" fill="#101010"/>
<path fill-rule="evenodd" clip-rule="evenodd" d="M26.5641 16C26.5641 15.5468 26.9315 15.1795 27.3846 15.1795H29.0257C29.4788 15.1795 29.8462 15.5468 29.8462 16C29.8462 16.4531 29.4788 16.8205 29.0257 16.8205H27.3846C26.9315 16.8205 26.5641 16.4531 26.5641 16Z" fill="#101010"/>
<path fill-rule="evenodd" clip-rule="evenodd" d="M15.3617 20.6377C15.6822 20.9582 15.6822 21.4777 15.3617 21.7981L14.1966 22.9632C13.8762 23.2837 13.3566 23.2837 13.0362 22.9632C12.7158 22.6428 12.7158 22.1233 13.0362 21.8028L14.2013 20.6377C14.5218 20.3173 15.0413 20.3173 15.3617 20.6377Z" fill="#101010"/>
<path fill-rule="evenodd" clip-rule="evenodd" d="M26.9639 9.03516C27.2843 9.35559 27.2843 9.87511 26.9639 10.1955L25.7988 11.3607C25.4783 11.6811 24.9588 11.6811 24.6384 11.3607C24.318 11.0402 24.318 10.5207 24.6384 10.2003L25.8035 9.03516C26.1239 8.71473 26.6435 8.71473 26.9639 9.03516Z" fill="#101010"/>
<defs>
<filter id="filter0_d_13_1893" x="0" y="0" width="40" height="40" filterUnits="userSpaceOnUse" color-interpolation-filters="sRGB">
<feFlood flood-opacity="0" result="BackgroundImageFix"/>
<feColorMatrix in="SourceAlpha" type="matrix" values="0 0 0 0 0 0 0 0 0 0 0 0 0 0 0 0 0 0 127 0" result="hardAlpha"/>
<feOffset dy="4"/>
<feGaussianBlur stdDeviation="2"/>
<feComposite in2="hardAlpha" operator="out"/>
<feColorMatrix type="matrix" values="0 0 0 0 0 0 0 0 0 0 0 0 0 0 0 0 0 0 0.25 0"/>
<feBlend mode="normal" in2="BackgroundImageFix" result="effect1_dropShadow_13_1893"/>
<feBlend mode="normal" in="SourceGraphic" in2="effect1_dropShadow_13_1893" result="shape"/>
</filter>
</defs>
</svg>
