<svg width="52" height="40" viewBox="0 0 52 40" fill="none" xmlns="http://www.w3.org/2000/svg">
<rect x="4" width="48" height="32" rx="16" fill="#575757"/>
<g filter="url(#filter0_d_13_1871)">
<rect x="4" width="32" height="32" rx="16" fill="white"/>
<rect x="4.5" y="0.5" width="31" height="31" rx="15.5" stroke="white"/>
</g>
<path fill-rule="evenodd" clip-rule="evenodd" d="M20 12.7179C18.1873 12.7179 16.7179 14.1874 16.7179 16C16.7179 17.8126 18.1873 19.2821 20 19.2821C21.8126 19.2821 23.282 17.8126 23.282 16C23.282 14.1874 21.8126 12.7179 20 12.7179ZM15.0769 16C15.0769 13.2811 17.281 11.0769 20 11.0769C22.7189 11.0769 24.923 13.2811 24.923 16C24.923 18.7189 22.7189 20.9231 20 20.9231C17.281 20.9231 15.0769 18.7189 15.0769 16Z" fill="#101010"/>
<path fill-rule="evenodd" clip-rule="evenodd" d="M20 6.15385C20.4531 6.15385 20.8205 6.5212 20.8205 6.97436V8.61539C20.8205 9.06854 20.4531 9.4359 20 9.4359C19.5468 9.4359 19.1794 9.06854 19.1794 8.61539V6.97436C19.1794 6.5212 19.5468 6.15385 20 6.15385Z" fill="#101010"/>
<path fill-rule="evenodd" clip-rule="evenodd" d="M20 22.5641C20.4531 22.5641 20.8205 22.9315 20.8205 23.3846V25.0256C20.8205 25.4788 20.4531 25.8462 20 25.8462C19.5468 25.8462 19.1794 25.4788 19.1794 25.0256V23.3846C19.1794 22.9315 19.5468 22.5641 20 22.5641Z" fill="#101010"/>
<path fill-rule="evenodd" clip-rule="evenodd" d="M13.0362 9.0352C13.3566 8.71476 13.8761 8.71476 14.1965 9.0352L15.3617 10.2003C15.6821 10.5208 15.6821 11.0403 15.3617 11.3607C15.0412 11.6811 14.5217 11.6811 14.2013 11.3607L13.0362 10.1956C12.7157 9.87515 12.7157 9.35563 13.0362 9.0352Z" fill="#101010"/>
<path fill-rule="evenodd" clip-rule="evenodd" d="M24.6383 20.6378C24.9588 20.3173 25.4783 20.3173 25.7987 20.6378L26.9638 21.8029C27.2843 22.1233 27.2843 22.6428 26.9638 22.9633C26.6434 23.2837 26.1239 23.2837 25.8034 22.9633L24.6383 21.7981C24.3179 21.4777 24.3179 20.9582 24.6383 20.6378Z" fill="#101010"/>
<path fill-rule="evenodd" clip-rule="evenodd" d="M10.1538 16C10.1538 15.5468 10.5212 15.1795 10.9743 15.1795H12.6153C13.0685 15.1795 13.4359 15.5468 13.4359 16C13.4359 16.4532 13.0685 16.8205 12.6153 16.8205H10.9743C10.5212 16.8205 10.1538 16.4532 10.1538 16Z" fill="#101010"/>
<path fill-rule="evenodd" clip-rule="evenodd" d="M26.5641 16C26.5641 15.5468 26.9314 15.1795 27.3846 15.1795H29.0256C29.4788 15.1795 29.8461 15.5468 29.8461 16C29.8461 16.4532 29.4788 16.8205 29.0256 16.8205H27.3846C26.9314 16.8205 26.5641 16.4532 26.5641 16Z" fill="#101010"/>
<path fill-rule="evenodd" clip-rule="evenodd" d="M15.3617 20.6378C15.6821 20.9582 15.6821 21.4777 15.3617 21.7981L14.1965 22.9633C13.8761 23.2837 13.3566 23.2837 13.0362 22.9633C12.7157 22.6428 12.7157 22.1233 13.0362 21.8029L14.2013 20.6378C14.5217 20.3173 15.0412 20.3173 15.3617 20.6378Z" fill="#101010"/>
<path fill-rule="evenodd" clip-rule="evenodd" d="M26.9638 9.0352C27.2843 9.35563 27.2843 9.87515 26.9638 10.1956L25.7987 11.3607C25.4783 11.6811 24.9588 11.6811 24.6383 11.3607C24.3179 11.0403 24.3179 10.5208 24.6383 10.2003L25.8034 9.0352C26.1239 8.71476 26.6434 8.71476 26.9638 9.0352Z" fill="#101010"/>
<defs>
<filter id="filter0_d_13_1871" x="0" y="0" width="40" height="40" filterUnits="userSpaceOnUse" color-interpolation-filters="sRGB">
<feFlood flood-opacity="0" result="BackgroundImageFix"/>
<feColorMatrix in="SourceAlpha" type="matrix" values="0 0 0 0 0 0 0 0 0 0 0 0 0 0 0 0 0 0 127 0" result="hardAlpha"/>
<feOffset dy="4"/>
<feGaussianBlur stdDeviation="2"/>
<feComposite in2="hardAlpha" operator="out"/>
<feColorMatrix type="matrix" values="0 0 0 0 0 0 0 0 0 0 0 0 0 0 0 0 0 0 0.25 0"/>
<feBlend mode="normal" in2="BackgroundImageFix" result="effect1_dropShadow_13_1871"/>
<feBlend mode="normal" in="SourceGraphic" in2="effect1_dropShadow_13_1871" result="shape"/>
</filter>
</defs>
</svg>
