<svg width="47" height="41" viewBox="0 0 47 41" fill="none" xmlns="http://www.w3.org/2000/svg">
<path d="M0.71133 31.114H26.2472V40.2715C26.2472 40.6739 26.566 41 26.9594 41C27.1577 41 27.3366 40.9172 27.4659 40.7836L46.7914 21.0147C47.0695 20.7303 47.0695 20.2689 46.7914 19.9845L27.4637 0.213338C27.1857 -0.0711127 26.7346 -0.0711127 26.4566 0.213338C26.3175 0.355558 26.248 0.542013 26.248 0.728469V9.88595H0.712132C0.318764 9.88595 0 10.212 0 10.6144V30.3855C0 30.7879 0.318764 31.114 0.712132 31.114L0.71133 31.114ZM26.9602 29.6571H1.42428V11.3424H26.9602C27.3535 11.3424 27.6723 11.0163 27.6723 10.6139V2.48666L45.2811 20.4995L27.6723 38.5123V30.385C27.6723 29.9826 27.3535 29.6566 26.9602 29.6566V29.6571Z" fill="white"/>
</svg>
