<svg width="47" height="41" viewBox="0 0 47 41" fill="none" xmlns="http://www.w3.org/2000/svg">
<path d="M46.2887 31.114H20.7528V40.2715C20.7528 40.6739 20.434 41 20.0406 41C19.8423 41 19.6634 40.9172 19.5341 40.7836L0.208553 21.0147C-0.0695178 20.7303 -0.0695178 20.2689 0.208553 19.9845L19.5363 0.213338C19.8143 -0.0711127 20.2654 -0.0711127 20.5434 0.213338C20.6825 0.355558 20.752 0.542013 20.752 0.728469V9.88595H46.2879C46.6812 9.88595 47 10.212 47 10.6144V30.3855C47 30.7879 46.6812 31.114 46.2879 31.114L46.2887 31.114ZM20.0398 29.6571H45.5757V11.3424H20.0398C19.6465 11.3424 19.3277 11.0163 19.3277 10.6139V2.48666L1.71887 20.4995L19.3277 38.5123V30.385C19.3277 29.9826 19.6465 29.6566 20.0398 29.6566V29.6571Z" fill="white"/>
</svg>
